<mxfile
  host="Electron" 
  agent="Mozilla/5.0 (Macintosh; Intel Mac OS X 10_15_7) AppleWebKit/537.36 (KHTML, like Gecko) draw.io/25.0.2 Chrome/128.0.6613.186 Electron/32.2.5 Safari/537.36" 
  version="25.0.2"
  >
  <diagram
    name="-"
    >
    <mxGraphModel
      grid="1" 
      gridSize="10" 
      guides="1" 
      tooltips="1" 
      connect="1" 
      arrows="1" 
      fold="1" 
      page="1" 
      pageScale="1" 
      pageWidth="1" 
      pageHeight="1" 
      math="0" 
      shadow="0"
      >
      <root>
        <mxCell
          id="page"
          />
        <mxCell
          id="root" 
          parent="page"
          />
        <mxCell
          style="verticalAlign=top;aspect=fixed;align=center;spacingLeft=5;spacingRight=5;spacingBottom=5;strokeColor=none;" 
          id="shape_" 
          parent="root" 
          value=" " 
          vertex="1"
          >
          <mxGeometry
            as="geometry" 
            width="62" 
            height="60" 
            x="0" 
            y="0"
            />
          </mxCell>
        <mxCell
          style="sketch=0;html=1;verticalAlign=top;labelPosition=center;verticalLabelPosition=bottom;align=center;spacingTop=-6;fontSize=11;fontStyle=1;fontColor=#999999;shape=image;aspect=fixed;imageAspect=0;image=data:image/svg+xml,PHN2ZyB4bWxucz0iaHR0cDovL3d3dy53My5vcmcvMjAwMC9zdmciIHhtbG5zOnY9Imh0dHBzOi8vdmVjdGEuaW8vbmFubyIgd2lkdGg9IjM3NS44NTAyODQ2NDQwODg3MyIgaGVpZ2h0PSIzNTMuODA1Nzc3NDY3NzY5NyIgdmlld0JveD0iMC4yNTU5OTk1NjUxMjQ1MTE3IDAuNDI2MDAwMDI4ODQ4NjQ4MDcgOTkuNDQzNjU2OTIxMzg2NzIgOTMuNjExMDAwMDYxMDM1MTYiPiYjeGE7PHN0eWxlIHR5cGU9InRleHQvY3NzIj4mI3hhOwkuc3Qwe2ZpbGw6I2FlY2JmYTt9JiN4YTsJLnN0MXtmaWxsOiNmZmY7fSYjeGE7CS5zdDJ7ZmlsbDojNDI4NWY0O30mI3hhOwkuc3Qze2ZpbGw6IzY2OWRmNjt9JiN4YTs8L3N0eWxlPiYjeGE7CTxwYXRoIGNsYXNzPSJzdDAiIGQ9Ik04LjU0NCA3MS45MjhjLTQuODE1IDAtOC4yODgtMy44ODktOC4yODgtOC4zMjdWNy45ODNDLjI1NyA0LjY1IDQuMDcyLjQyNiA3LjQ5NS40MjZoODMuOTUyYzQuNzA1IDAgOC4yNTIgMy4zNzkgOC4yNTIgOC4xNzR2NTEuNDk1Yy4wNDcgNy41OTUtMi40NyAxMS44MzQtOS4wMTIgMTEuODM0eiIvPiYjeGE7CTxwYXRoIGNsYXNzPSJzdDEiIGQ9Ik0yOC4wNDYgNTcuMTV2LTkuOTIybDMxLjg4Mi0xMy44OTEtMzEuODgyLTEzLjY5MlY5LjI2MWw0NS44MDYgMTguOTg0djkuNzl6bTI1LjIzNSAzLjY3MXYtMTAuNTVoMjAuMDc1djEwLjU1eiIvPiYjeGE7CTxwYXRoIGNsYXNzPSJzdDIiIGQ9Ik00MC4wMyA4My41MjRWNzEuOTI4aDIwLjI5NXYxMS41OTZ6Ii8+JiN4YTsJPHBhdGggY2xhc3M9InN0MyIgZD0iTTY5Ljg3MyA4My41MjR2MTAuNTEzSDMwLjFWODMuNTI0eiIvPiYjeGE7PC9zdmc+;strokeColor=none;" 
          id="cloud_shell_" 
          parent="shape_" 
          value=" " 
          vertex="1"
          >
          <mxGeometry
            width="42" 
            height="40" 
            as="geometry" 
            x="10" 
            y="10"
            />
          </mxCell>
        </root>
      </mxGraphModel>
    </diagram>
  </mxfile>